<?xml version="1.0" encoding="utf-8"?>
<svg xmlns="http://www.w3.org/2000/svg" viewBox="0 0 50 50" fill="#000000"><path d="M 25 1 C 23.346 1 22 2.346 22 4 C 22 5.654 23.346 7 25 7 C 26.654 7 28 5.654 28 4 C 28 2.346 26.654 1 25 1 z M 29.244141 6.609375 C 28.363141 8.038375 26.798 9 25 9 C 23.203 9 21.636859 8.0383281 20.755859 6.6113281 C 15.314859 8.2173281 12 12.821 12 19 C 12 29.354 9.1935781 31.92975 7.5175781 33.46875 C 6.7365781 34.18575 6 34.863 6 36 C 6 40.038 12.215 42 25 42 C 37.785 42 44 40.038 44 36 C 44 34.863 43.263422 34.18575 42.482422 33.46875 C 40.806422 31.92975 38 29.354 38 19 C 38 12.805 34.687141 8.211375 29.244141 6.609375 z M 19.066406 43.847656 C 19.480406 46.754656 21.98 49 25 49 C 28.02 49 30.519594 46.754656 30.933594 43.847656 C 28.965594 43.961656 26.954 44 25 44 C 23.046 44 21.034406 43.961656 19.066406 43.847656 z" fill="#000000"/></svg>
